<?xml version="1.0" encoding="UTF-8" standalone="no"?>
<svg width="120px" height="110px" viewBox="0 0 120 110" version="1.1" xmlns="http://www.w3.org/2000/svg" xmlns:xlink="http://www.w3.org/1999/xlink" xmlns:sketch="http://www.bohemiancoding.com/sketch/ns">
    <!-- Generator: bin/sketchtool 1.4 (305) - http://www.bohemiancoding.com/sketch -->
    <title>просмотры</title>
    <desc>Created with bin/sketchtool.</desc>
    <defs>
        <path id="path-1" d="M60,93 C84.0832941,93 105.052549,77.2592527 116,54.0006306 C105.052549,30.7407473 84.0832941,15 60,15 C35.9178039,15 14.948549,30.7407473 4,54.0006306 C14.948549,77.2592527 35.9178039,93 60,93 L60,93 Z"></path>
    </defs>
    <g id="Page-1" stroke="none" stroke-width="1" fill="none" fill-rule="evenodd" sketch:type="MSPage">
        <g id="Видео" sketch:type="MSArtboardGroup" transform="translate(-420.000000, -651.000000)">
            <g id="просмотры" sketch:type="MSLayerGroup" transform="translate(420.000000, 651.000000)">
                <rect id="Rectangle-18-Copy-3" opacity="0.492362407" sketch:type="MSShapeGroup" x="0" y="0" width="120" height="110"></rect>
                <mask id="mask-2" sketch:name="Mask" fill="white">
                    <use xlink:href="#path-1"></use>
                </mask>
                <use id="Mask" stroke="#FFFFFF" stroke-width="6" stroke-linecap="round" stroke-linejoin="round" sketch:type="MSShapeGroup" xlink:href="#path-1"></use>
                <path d="M86.6285379,23 C90.6338416,28.4615738 93,35.2021521 93,42.4958437 C93,60.7216584 78.2252537,75.4964047 59.999439,75.4964047 C41.7747463,75.4964047 27,60.7216584 27,42.4958437 C27,35.423173 29.2247947,28.8699577 33.0135652,23.4981386" id="Stroke-60" stroke="#FFFFFF" stroke-width="6" stroke-linecap="round" stroke-linejoin="round" sketch:type="MSShapeGroup" mask="url(#mask-2)"></path>
                <path d="M73,43 C73,50.1792905 67.1803292,56 60,56 C52.8207095,56 47,50.1792905 47,43 C47,35.8196708 52.8207095,30 60,30 C67.1803292,30 73,35.8196708 73,43 L73,43 Z" id="Stroke-59" stroke="#FFFFFF" stroke-width="6" sketch:type="MSShapeGroup" mask="url(#mask-2)"></path>
            </g>
        </g>
    </g>
</svg>