<?xml version="1.0" encoding="UTF-8" standalone="no"?>
<svg width="120px" height="110px" viewBox="0 0 120 110" version="1.1" xmlns="http://www.w3.org/2000/svg" xmlns:xlink="http://www.w3.org/1999/xlink" xmlns:sketch="http://www.bohemiancoding.com/sketch/ns">
    <!-- Generator: bin/sketchtool 1.4 (305) - http://www.bohemiancoding.com/sketch -->
    <title>скорость</title>
    <desc>Created with bin/sketchtool.</desc>
    <defs></defs>
    <g id="Page-1" stroke="none" stroke-width="1" fill="none" fill-rule="evenodd" sketch:type="MSPage">
        <g id="Видео" sketch:type="MSArtboardGroup" transform="translate(-1385.000000, -652.000000)">
            <g id="скорость" sketch:type="MSLayerGroup" transform="translate(1385.000000, 652.000000)">
                <rect id="Rectangle-18-Copy-2" sketch:type="MSShapeGroup" x="0" y="0" width="120" height="110"></rect>
                <path d="M90.6338182,96.9512727 C101.242909,88.1465455 108,74.8636364 108,60.0010909 C108,33.4909091 86.5101818,12 60,12 C33.4909091,12 12,33.4909091 12,60.0010909 C12,74.8636364 18.7581818,88.1465455 29.3672727,96.9512727 M64.4792727,64.1552727 C64.4792727,66.6294545 62.4741818,68.6334545 60,68.6334545 C57.5269091,68.6334545 55.5218182,66.6294545 55.5218182,64.1552727 C55.5218182,61.6810909 57.5269091,59.676 60,59.676 C62.4741818,59.676 64.4792727,61.6810909 64.4792727,64.1552727 L64.4792727,64.1552727 L64.4792727,64.1552727 Z M61.608,59.7981818 L70.3036364,26.064 L61.608,59.7981818 L61.608,59.7981818 Z" id="Stroke-119-Copy" stroke="#FFFFFF" stroke-width="6" stroke-linecap="round" stroke-linejoin="round" sketch:type="MSShapeGroup"></path>
            </g>
        </g>
    </g>
</svg>