<?xml version="1.0" encoding="UTF-8" standalone="no"?>
<svg width="120px" height="110px" viewBox="0 0 120 110" version="1.1" xmlns="http://www.w3.org/2000/svg" xmlns:xlink="http://www.w3.org/1999/xlink" xmlns:sketch="http://www.bohemiancoding.com/sketch/ns">
    <!-- Generator: bin/sketchtool 1.4 (305) - http://www.bohemiancoding.com/sketch -->
    <title>зрители</title>
    <desc>Created with bin/sketchtool.</desc>
    <defs>
        <circle id="path-1" cx="60" cy="55" r="48"></circle>
    </defs>
    <g id="Page-1" stroke="none" stroke-width="1" fill="none" fill-rule="evenodd" sketch:type="MSPage">
        <g id="Видео" sketch:type="MSArtboardGroup" transform="translate(-748.000000, -652.000000)">
            <g id="зрители" sketch:type="MSLayerGroup" transform="translate(748.000000, 652.000000)">
                <rect id="Rectangle-18-Copy" sketch:type="MSShapeGroup" x="0" y="0" width="120" height="110"></rect>
                <mask id="mask-2" sketch:name="Mask" fill="white">
                    <use xlink:href="#path-1"></use>
                </mask>
                <use id="Mask" stroke="#FFFFFF" stroke-width="6" sketch:type="MSShapeGroup" xlink:href="#path-1"></use>
                <path d="M60.0231716,55 C51.1692976,55 44,47.838934 44,39.0115875 C44,30.161066 51.1692976,23 60.0231716,23 C68.8376539,23 76,30.161066 76,39.0115875 C76,47.838934 68.8376539,55 60.0231716,55 Z M61.7434311,61.5421901 L58.8908146,61.5421901 C44.9816117,61.5421901 39.3216926,66.0529946 35.6706887,73.4582499 C34.820514,75.181647 33.5366208,86.1000632 32.401616,97.3032146 C35.4915909,99.054443 38.7606636,100.523077 42.1786247,101.674863 L43.8768162,82.2086297 L44.4356874,102.38563 C49.4784747,103.854264 54.8104077,104.657089 60.3322275,104.657089 C65.8389426,104.657089 71.1579288,103.858546 76.1920849,102.396335 L76.7552717,82.2086297 L78.4534632,101.685567 C81.6729064,100.602289 84.7671969,99.2406983 87.6953366,97.6243445 C87.8679609,97.5065969 88.0513742,97.3995536 88.2218407,97.2775243 C87.0889938,86.0850772 85.8094161,75.1795061 84.9613993,73.4582499 C81.3082376,66.0529946 75.6483184,61.5421901 61.7434311,61.5421901 Z" id="Stroke-2" stroke="#FFFFFF" stroke-width="6" stroke-linecap="round" stroke-linejoin="round" sketch:type="MSShapeGroup" mask="url(#mask-2)"></path>
            </g>
        </g>
    </g>
</svg>